PathFileType	4	(X/Y/Z)	Patient4_TMGait_0pt4_01_left_40.trc.trc
DataRate	CameraRate	NumFrames	NumMarkers	Units	OrigDataRate	OrigDataStartFrame	OrigNumFrames
76.923076923077	76.923076923077	5	33	mm	76.923076923077	124	       141
Frame#	Time	Sacral			L.Shoulder			Chest			R.Shoulder			Neck			R.ASIS			L.ASIS			R.Thigh.Superior			R.Thigh.Lateral			R.Thigh.Inferior			R.Patella			L.Thigh.Superior			L.Thigh.Lateral			L.Thigh.Inferior			L.Patella			L.Shank.Superior			L.Shank.Lateral			L.Shank.Inferior			R.Shank.Superior			R.Shank.Lateral			R.Shank.Inferior			R.Heel			R.Midfoot.Superior			R.Midfoot.Lateral			R.Toe			L.Heel			L.Midfoot.Lateral			L.Midfoot.Superior			L.Toe			L.Elbow			L.Wrist			R.Elbow			R.Wrist			
		X1	Y1	Z1	X2	Y2	Z2	X3	Y3	Z3	X4	Y4	Z4	X5	Y5	Z5	X6	Y6	Z6	X7	Y7	Z7	X8	Y8	Z8	X9	Y9	Z9	X10	Y10	Z10	X11	Y11	Z11	X12	Y12	Z12	X13	Y13	Z13	X14	Y14	Z14	X15	Y15	Z15	X16	Y16	Z16	X17	Y17	Z17	X18	Y18	Z18	X19	Y19	Z19	X20	Y20	Z20	X21	Y21	Z21	X22	Y22	Z22	X23	Y23	Z23	X24	Y24	Z24	X25	Y25	Z25	X26	Y26	Z26	X27	Y27	Z27	X28	Y28	Z28	X29	Y29	Z29	X30	Y30	Z30	X31	Y31	Z31	X32	Y32	Z32	X33	Y33	Z33	

124	51.819000000000	856.895184811062	1008.927944722942	516.927928124091	1014.875705909592	1433.070115082641	312.907918794412	1143.447409460953	1362.310059307092	453.131923344632	1092.880105222859	1437.109834711167	639.240436903863	1023.852148299609	1492.387461020510	470.326067448712	1095.501817715020	936.027987942437	601.560757918757	1047.930684603145	961.327261055716	331.166156300490	1096.496338313679	725.948547452967	571.876030523032	1000.027623658191	628.240077329183	638.952149446195	1058.369879623097	566.221345639531	554.341852215789	1041.946133311763	481.072164731471	559.791636443200	1122.041088361270	771.170527333610	355.262082302286	1057.178909239892	640.721662751946	292.259237351349	1162.279310569281	578.887975140486	344.922876528133	1180.885123657000	510.527186987327	345.789222369349	1158.565293462562	437.050953133976	338.612461948893	1077.733453128332	313.796933200654	293.499880033921	1155.170184385358	207.246378888549	347.860749916145	1004.187553935106	396.225368622997	566.723377570593	922.889380475568	301.001507209659	630.804870929541	949.495688948531	202.942821153971	564.036036978460	799.202682952216	45.336991817324	532.627101695282	970.735754677737	96.010291908069	569.748248814030	881.546126329571	37.350135671580	607.610055497215	1089.914550285095	40.465995205032	599.519564092161	1053.335850850749	41.258544363880	391.237956109389	1124.882215863082	38.307069196790	309.104968264350	1205.351688102434	105.177672242966	329.470147458177	1334.118708274386	59.482285062166	299.026080017505	899.951673580017	1092.178474722557	227.522546847337	907.172766035644	831.234031567922	214.149011808097	1198.928342532889	1105.056434229611	749.125799166140	1431.152399363197	1026.097935979264	672.402330880111	
125	51.832000000000	857.450996963813	1007.728233990570	514.230896519876	1014.070775507866	1431.810903120746	309.819358183631	1142.669615746823	1362.043773470348	450.489817643806	1091.286934711955	1436.832132699857	636.429088193469	1022.654668483245	1491.628113769291	467.190891286676	1096.070246612410	935.547096423846	600.112717777714	1049.435380942979	960.075518701139	329.603747550949	1096.741663736668	725.120994078259	570.789698340273	999.423483905703	627.720479161908	637.581562415741	1057.586310730106	565.284586767385	553.233471927532	1040.563761450112	479.845711209096	558.488198381886	1123.519568066819	769.180916199516	354.329665307560	1057.362761326163	639.087158199374	292.301114419092	1162.174372629384	577.088082223086	345.407071500203	1179.447783555234	507.782878571842	347.017789847317	1156.392257420984	434.038910234030	339.714765143329	1073.678037222647	311.978672898676	294.482911235828	1148.553189094356	204.172211946513	349.869529437966	1001.952909596232	395.347002242037	565.653652419504	919.858401930885	300.985504793670	630.110607288918	945.369591565157	202.554055971732	563.558018210108	793.982955143155	45.587188277683	532.686258680966	965.549438868896	95.973347479642	569.623388689106	876.343692909545	37.454170778703	607.657802236070	1084.727572430637	40.334096703295	599.565993154356	1043.126576909571	40.211173712167	392.705727653061	1114.826195203503	37.088649361510	310.612236823155	1196.465309278977	102.052256291210	332.191628626512	1324.796921905728	54.344749485729	301.478287542792	899.542904743572	1090.739120118132	224.902935566671	907.507806791079	829.811872842613	211.320655673696	1196.227051950925	1104.053241621980	746.319800482110	1427.227087941009	1022.056203801319	668.658932711608	
126	51.845000000000	858.051686021476	1006.722447847245	511.476041968427	1013.375839224881	1430.704659587778	306.605149472563	1141.939648557582	1361.970537786930	447.792836532047	1089.670701468316	1436.785960371111	633.528821355862	1021.507622711813	1491.074054967281	463.922446450240	1096.693802079710	935.241030586698	598.514084886494	1050.912495572657	959.076451148912	327.953810513593	1097.198135295392	724.474906342613	569.615199483337	999.022446418485	627.357063250164	636.081900403156	1057.062012631964	564.492248812751	552.035609822322	1039.529504286496	478.677997975268	557.173051519364	1124.686263667598	767.231713321271	353.484895934810	1057.509696031341	637.810153307291	291.937759479954	1161.743954262690	575.476055521993	345.880343727718	1177.754860497275	505.431375260418	348.035707233459	1154.207466139929	431.539211301422	340.431904103483	1070.208628275482	310.444798381094	294.846008999144	1142.782655994858	201.711038611110	351.323735229919	999.938926946852	394.590557769495	564.566430275434	916.936919482265	301.193232529326	629.380456836068	941.387229620538	202.338149325074	563.109210200316	788.801390408098	46.123616221639	532.761508806641	960.505709579399	96.010667055120	569.582338930006	871.184963078771	37.670206010639	607.711718454403	1079.581406892525	40.152645471618	599.619202308577	1034.415032510361	39.368067052694	393.611542116629	1106.286799482145	36.294862336713	311.572334902508	1188.732372673361	99.755140563324	334.274042318952	1316.784682757728	50.612742804114	303.365016876614	899.722035354847	1089.284442299708	222.052968843692	908.637012703858	828.380489429408	208.191533170512	1193.045641273744	1103.160731333130	743.630165251642	1422.557145194390	1017.272989468757	665.241071598486	
127	51.858000000000	858.671193951857	1006.004231153220	508.708579772880	1012.791578727980	1429.843482041580	303.309704135731	1141.273659504307	1362.129806285810	445.047881373139	1088.109945680470	1437.032639975730	630.547222758137	1020.425797971755	1490.785522505449	460.556332048469	1097.323307718967	935.175917434207	596.731691533809	1052.276136795286	958.408466729614	326.164713146143	1097.802274342230	724.077946299383	568.318676665930	998.851903395943	627.191065346705	634.467583175250	1056.856342168428	563.904734731395	550.754776239363	1038.954740760062	477.592375601270	555.914161829274	1125.530865584259	765.522084310956	352.659199867624	1057.646661522783	636.973601274057	291.146054382661	1161.043097400524	574.162215477015	346.196807386939	1175.874177427929	503.564283450007	348.706754012517	1152.048556266268	429.609570921432	340.719183015918	1067.285487699997	309.259788693923	294.601810706500	1137.816534950889	199.893088315196	352.219928112236	998.226271242116	393.992961944842	563.512036992122	914.168744401817	301.685310274602	628.633962462525	937.604637108057	202.348501475899	562.724457714777	783.679807728593	47.041594896577	532.862702254222	955.648751077369	96.139926658189	569.647559916115	866.083002031778	38.041233622448	607.774837756266	1074.477624921462	39.922493654875	599.676640272056	1027.121957819689	38.763234034438	394.046967039849	1099.155763275196	35.867220417251	312.059038215595	1182.094741463495	98.238635000425	335.702103238745	1309.996691662882	48.165903236838	304.659570417255	900.532450111296	1087.907884023952	218.975563145031	910.595232487396	827.034391827173	204.801938163835	1189.383506089172	1102.441889384845	741.046153615153	1417.089383567590	1011.774068619048	662.184913492765	
128	51.871000000000	859.284901858720	1005.635068715236	505.950742891732	1012.309914871338	1429.296903554146	299.974184555741	1140.679153049477	1362.542081617594	442.261385647718	1086.663101554511	1437.606390498942	627.492289829512	1019.412501575484	1490.797297467954	457.128188808476	1097.907442639367	935.400558007597	594.744130835136	1053.470197015154	958.113399384575	324.190067568838	1098.496870443525	723.983198459220	566.874977976992	998.959281995746	627.243331469441	632.763441979397	1057.056083505630	563.567484888157	549.406085688989	1038.975214726269	476.597081409202	554.790311818079	1126.080014167795	764.204112431475	351.757575785104	1057.758313839955	636.599015919075	289.941966730468	1160.103342284792	573.184228126149	346.209401008854	1173.828661970003	502.189778669824	348.933756194388	1149.891741527965	428.230681774692	340.572471068036	1064.759802454584	308.432231931875	293.827698646588	1133.499167655255	198.674939033326	352.607172056505	996.921941509318	393.575412028957	562.545880159287	911.621560433957	302.511494636423	627.891823587889	934.089851039988	202.629675860394	562.438089996116	778.648060805838	48.440451097662	532.997016599906	951.019968780958	96.373858688935	569.830288633091	861.052933575683	38.618714332316	607.848788880482	1069.413171447573	39.649005662477	599.734300532747	1021.014804976446	38.391795668418	394.123321335057	1093.181610426571	35.718633154079	312.172471730526	1176.368719812016	97.384322260217	336.529543438223	1304.217167343654	46.784450656623	305.408049115488	901.986387507399	1086.690667669443	215.673063809987	913.427223863743	825.860034374396	201.189873723582	1185.237874478198	1101.945774690922	738.557937085994	1410.760247409963	1005.598190296510	659.525532053430	
